<svg width="24" height="24" viewBox="0 0 24 24" fill="none" xmlns="http://www.w3.org/2000/svg">
<path fill-rule="evenodd" clip-rule="evenodd" d="M12.3763 15.3763C12.1888 15.5638 11.9345 15.6691 11.6693 15.6691C11.4041 15.6691 11.1498 15.5638 10.9623 15.3763L5.30529 9.71929C5.20978 9.62704 5.1336 9.5167 5.08119 9.39469C5.02878 9.27269 5.00119 9.14147 5.00004 9.00869C4.99888 8.87591 5.02419 8.74423 5.07447 8.62133C5.12475 8.49844 5.199 8.38679 5.29289 8.29289C5.38679 8.199 5.49844 8.12475 5.62133 8.07447C5.74423 8.02419 5.87591 7.99888 6.00869 8.00004C6.14147 8.00119 6.27269 8.02878 6.39469 8.08119C6.5167 8.1336 6.62704 8.20978 6.71929 8.30529L11.6693 13.2553L16.6193 8.30529C16.8079 8.12313 17.0605 8.02234 17.3227 8.02461C17.5849 8.02689 17.8357 8.13206 18.0211 8.31747C18.2065 8.50288 18.3117 8.75369 18.314 9.01589C18.3162 9.27808 18.2154 9.53069 18.0333 9.71929L12.3763 15.3763Z" fill="white"/>
</svg>
