<svg width="16" height="16" viewBox="0 0 16 16" fill="none" xmlns="http://www.w3.org/2000/svg">
<path d="M7.52687 0C5.96349 0 4.46414 0.621051 3.35867 1.72653C2.25319 2.83201 1.63214 4.33136 1.63214 5.89474V8.86568C1.63226 8.99632 1.60199 9.12519 1.54372 9.24211L0.0978213 12.1331C0.0271909 12.2743 -0.00616011 12.4312 0.000935822 12.589C0.00803176 12.7467 0.055339 12.9001 0.138365 13.0344C0.22139 13.1687 0.337377 13.2796 0.475309 13.3565C0.613242 13.4334 0.76854 13.4737 0.926453 13.4737H14.1273C14.2852 13.4737 14.4405 13.4334 14.5784 13.3565C14.7164 13.2796 14.8324 13.1687 14.9154 13.0344C14.9984 12.9001 15.0457 12.7467 15.0528 12.589C15.0599 12.4312 15.0266 12.2743 14.9559 12.1331L13.5109 9.24211C13.4523 9.12526 13.4218 8.99638 13.4216 8.86568V5.89474C13.4216 4.33136 12.8006 2.83201 11.6951 1.72653C10.5896 0.621051 9.09026 0 7.52687 0ZM7.52687 16C7.00422 16.0003 6.49435 15.8384 6.06752 15.5368C5.6407 15.2352 5.31793 14.8086 5.14372 14.3158H9.91003C9.73581 14.8086 9.41305 15.2352 8.98623 15.5368C8.5594 15.8384 8.04953 16.0003 7.52687 16Z" fill="white"/>
</svg>
