<svg width="28" height="28" viewBox="0 0 28 28" fill="none" xmlns="http://www.w3.org/2000/svg">
<path d="M5.4075 16.8175L6.61967 14.2473C6.65246 14.1739 6.70583 14.1115 6.77332 14.0677C6.84082 14.0239 6.91955 14.0006 7 14.0006C7.08046 14.0006 7.15919 14.0239 7.22668 14.0677C7.29418 14.1115 7.34754 14.1739 7.38034 14.2473L8.59367 16.8175L11.3038 17.2328C11.6515 17.2853 11.7892 17.7333 11.5372 17.99L9.57717 19.9885L10.0392 22.813C10.0987 23.1758 9.73584 23.4523 9.42434 23.2808L7 21.9473L4.57567 23.2808C4.26417 23.4523 3.90134 23.1758 3.96084 22.8142L4.42284 19.9885L2.46284 17.99C2.20967 17.7333 2.3485 17.2853 2.69617 17.2317L5.4075 16.8175ZM19.4075 16.8175L20.6197 14.2473C20.6525 14.1739 20.7058 14.1115 20.7733 14.0677C20.8408 14.0239 20.9195 14.0006 21 14.0006C21.0805 14.0006 21.1592 14.0239 21.2267 14.0677C21.2942 14.1115 21.3475 14.1739 21.3803 14.2473L22.5937 16.8175L25.3038 17.2328C25.6515 17.2853 25.7892 17.7333 25.5372 17.99L23.5772 19.9885L24.0392 22.813C24.0987 23.1758 23.7358 23.4523 23.4243 23.2808L21 21.9473L18.5757 23.2808C18.2642 23.4523 17.9013 23.1758 17.9608 22.8142L18.4228 19.9885L16.4628 17.99C16.2108 17.7333 16.3485 17.2853 16.6962 17.2317L19.4075 16.8175ZM12.4075 6.31749L13.6197 3.74732C13.6525 3.67385 13.7058 3.61145 13.7733 3.56767C13.8408 3.52388 13.9195 3.50058 14 3.50058C14.0805 3.50058 14.1592 3.52388 14.2267 3.56767C14.2942 3.61145 14.3475 3.67385 14.3803 3.74732L15.5937 6.31749L18.3038 6.73282C18.6515 6.78532 18.7892 7.23332 18.5372 7.48999L16.5772 9.48849L17.0392 12.313C17.0987 12.6758 16.7358 12.9523 16.4243 12.7808L14 11.4473L11.5757 12.7808C11.2642 12.9523 10.9013 12.6758 10.9608 12.3142L11.4228 9.48849L9.46284 7.48999C9.20967 7.23332 9.3485 6.78532 9.69617 6.73165L12.4075 6.31749Z" fill="#473818"/>
</svg>
