<svg width="20" height="20" viewBox="0 0 20 20" fill="none" xmlns="http://www.w3.org/2000/svg">
<path d="M5.83203 2.5V5V2.5ZM14.1654 2.5V5V2.5Z" fill="white"/>
<path d="M5.83203 2.5V5M14.1654 2.5V5" stroke="white" stroke-width="2" stroke-linecap="round"/>
<path d="M1.66602 7.50001C1.66602 5.92834 1.66602 5.14334 2.15435 4.65501C2.64268 4.16667 3.42768 4.16667 4.99935 4.16667H14.9993C16.571 4.16667 17.356 4.16667 17.8443 4.65501C18.3327 5.14334 18.3327 5.92834 18.3327 7.50001C18.3327 7.89251 18.3327 8.08917 18.211 8.21167C18.0885 8.33334 17.891 8.33334 17.4993 8.33334H2.49935C2.10685 8.33334 1.91018 8.33334 1.78768 8.21167C1.66602 8.08917 1.66602 7.89167 1.66602 7.50001ZM1.66602 15C1.66602 16.5717 1.66602 17.3567 2.15435 17.845C2.64268 18.3333 3.42768 18.3333 4.99935 18.3333H14.9993C16.571 18.3333 17.356 18.3333 17.8443 17.845C18.3327 17.3567 18.3327 16.5717 18.3327 15V10.8333C18.3327 10.4408 18.3327 10.2442 18.211 10.1217C18.0885 10 17.891 10 17.4993 10H2.49935C2.10685 10 1.91018 10 1.78768 10.1217C1.66602 10.2442 1.66602 10.4417 1.66602 10.8333V15Z" fill="white"/>
</svg>
