<svg width="30" height="29" viewBox="0 0 30 29" fill="none" xmlns="http://www.w3.org/2000/svg">
<g filter="url(#filter0_f_506_22291)">
<path d="M21.6143 15.3334C21.4289 16.8021 20.7601 18.1673 19.7133 19.2141C18.6666 20.2608 17.3013 20.9296 15.8327 21.1151V22.8334H14.166V21.1151C12.6974 20.9296 11.3321 20.2608 10.2854 19.2141C9.23863 18.1673 8.56984 16.8021 8.38435 15.3334H6.66602V13.6667H8.38435C8.56984 12.1981 9.23863 10.8329 10.2854 9.78611C11.3321 8.73936 12.6974 8.07057 14.166 7.88508V6.16675H15.8327V7.88508C17.3013 8.07057 18.6666 8.73936 19.7133 9.78611C20.7601 10.8329 21.4289 12.1981 21.6143 13.6667H23.3327V15.3334H21.6143ZM14.9993 19.5001C16.3254 19.5001 17.5972 18.9733 18.5349 18.0356C19.4726 17.0979 19.9993 15.8262 19.9993 14.5001C19.9993 13.174 19.4726 11.9022 18.5349 10.9645C17.5972 10.0269 16.3254 9.50008 14.9993 9.50008C13.6733 9.50008 12.4015 10.0269 11.4638 10.9645C10.5261 11.9022 9.99935 13.174 9.99935 14.5001C9.99935 15.8262 10.5261 17.0979 11.4638 18.0356C12.4015 18.9733 13.6733 19.5001 14.9993 19.5001ZM14.9993 17.0001C15.6624 17.0001 16.2983 16.7367 16.7671 16.2678C17.236 15.799 17.4993 15.1631 17.4993 14.5001C17.4993 13.837 17.236 13.2012 16.7671 12.7323C16.2983 12.2635 15.6624 12.0001 14.9993 12.0001C14.3363 12.0001 13.7004 12.2635 13.2316 12.7323C12.7627 13.2012 12.4993 13.837 12.4993 14.5001C12.4993 15.1631 12.7627 15.799 13.2316 16.2678C13.7004 16.7367 14.3363 17.0001 14.9993 17.0001Z" fill="#FFAA00"/>
</g>
<path d="M21.6143 15.3334C21.4289 16.8021 20.7601 18.1673 19.7133 19.2141C18.6666 20.2608 17.3013 20.9296 15.8327 21.1151V22.8334H14.166V21.1151C12.6974 20.9296 11.3321 20.2608 10.2854 19.2141C9.23863 18.1673 8.56984 16.8021 8.38435 15.3334H6.66602V13.6667H8.38435C8.56984 12.1981 9.23863 10.8329 10.2854 9.78611C11.3321 8.73936 12.6974 8.07057 14.166 7.88508V6.16675H15.8327V7.88508C17.3013 8.07057 18.6666 8.73936 19.7133 9.78611C20.7601 10.8329 21.4289 12.1981 21.6143 13.6667H23.3327V15.3334H21.6143ZM14.9993 19.5001C16.3254 19.5001 17.5972 18.9733 18.5349 18.0356C19.4726 17.0979 19.9993 15.8262 19.9993 14.5001C19.9993 13.174 19.4726 11.9022 18.5349 10.9645C17.5972 10.0269 16.3254 9.50008 14.9993 9.50008C13.6733 9.50008 12.4015 10.0269 11.4638 10.9645C10.5261 11.9022 9.99935 13.174 9.99935 14.5001C9.99935 15.8262 10.5261 17.0979 11.4638 18.0356C12.4015 18.9733 13.6733 19.5001 14.9993 19.5001ZM14.9993 17.0001C15.6624 17.0001 16.2983 16.7367 16.7671 16.2678C17.236 15.799 17.4993 15.1631 17.4993 14.5001C17.4993 13.837 17.236 13.2012 16.7671 12.7323C16.2983 12.2635 15.6624 12.0001 14.9993 12.0001C14.3363 12.0001 13.7004 12.2635 13.2316 12.7323C12.7627 13.2012 12.4993 13.837 12.4993 14.5001C12.4993 15.1631 12.7627 15.799 13.2316 16.2678C13.7004 16.7367 14.3363 17.0001 14.9993 17.0001Z" fill="white"/>
<defs>
<filter id="filter0_f_506_22291" x="0.666016" y="0.166748" width="28.6667" height="28.6667" filterUnits="userSpaceOnUse" color-interpolation-filters="sRGB">
<feFlood flood-opacity="0" result="BackgroundImageFix"/>
<feBlend mode="normal" in="SourceGraphic" in2="BackgroundImageFix" result="shape"/>
<feGaussianBlur stdDeviation="3" result="effect1_foregroundBlur_506_22291"/>
</filter>
</defs>
</svg>
