<svg width="40" height="38" viewBox="0 0 40 38" fill="none" xmlns="http://www.w3.org/2000/svg">
<path d="M16.2822 3.84573C19.4823 2.7617 22.9438 2.71879 26.1699 3.72268C29.3961 4.72667 32.2223 6.7261 34.2422 9.43459C36.2621 12.1432 37.373 15.4222 37.415 18.8008C37.4571 22.1792 36.4282 25.4842 34.4766 28.2422C32.5248 31.0002 29.7499 33.0702 26.5498 34.1543C23.3497 35.2383 19.8882 35.2813 16.6621 34.2774C13.9213 33.4244 11.4689 31.8526 9.55469 29.7383C8.99168 29.116 9.13579 28.158 9.80859 27.6563C10.4815 27.1546 11.4278 27.3007 12.0049 27.9102C13.5252 29.516 15.4379 30.7129 17.5654 31.375C20.1785 32.1881 22.9822 32.1525 25.5742 31.2744C28.1663 30.3963 30.4142 28.7203 31.9951 26.4864C33.576 24.2524 34.409 21.5754 34.375 18.8389C34.3409 16.1022 33.4418 13.446 31.8057 11.252C30.1695 9.058 27.8799 7.43828 25.2666 6.62502C22.6535 5.81193 19.8498 5.84757 17.2578 6.72561C15.1476 7.44048 13.2659 8.68412 11.7861 10.3272C11.2244 10.9509 10.2819 11.1204 9.59668 10.6358C8.91156 10.1509 8.74361 9.19672 9.29102 8.56057C11.1519 6.39935 13.5636 4.76669 16.2822 3.84573ZM21.083 19.5C21.9996 19.4995 22.9022 19.6072 23.791 19.8233C24.6799 20.0394 25.5549 20.3626 26.416 20.792C26.8186 21.0003 27.1415 21.3023 27.3848 21.6983C27.6281 22.0944 27.7496 22.5284 27.749 23V23.667C27.749 24.1252 27.5858 24.5172 27.2598 24.8438C26.9337 25.1704 26.5418 25.3335 26.083 25.333H16.083C15.6247 25.333 15.2324 25.1699 14.9062 24.8438C14.5803 24.5178 14.4166 24.1257 14.416 23.667V23C14.416 22.5278 14.5379 22.0938 14.7812 21.6983C15.0245 21.3029 15.347 21.0009 15.749 20.792C16.61 20.3615 17.4852 20.0383 18.374 19.8233C19.2629 19.6083 20.1663 19.5006 21.083 19.5ZM6.87598 15.293C7.2421 14.927 7.82116 14.9043 8.21387 15.2246L8.29004 15.293L11.79 18.793C12.1804 19.1835 12.1803 19.8166 11.79 20.2071L8.29004 23.7071L8.21387 23.7754C7.82115 24.0957 7.2421 24.073 6.87598 23.7071C6.50986 23.3409 6.48727 22.7619 6.80762 22.3692L6.87598 22.293L8.66895 20.5H1.75L1.64746 20.4951C1.14318 20.444 0.75 20.0178 0.75 19.5C0.750012 18.9822 1.14318 18.5561 1.64746 18.5049L1.75 18.5H8.66895L6.87598 16.7071L6.80762 16.6309C6.48727 16.2381 6.50986 15.6591 6.87598 15.293ZM21.083 12C21.9995 12.0001 22.7838 12.3268 23.4365 12.9795C24.0892 13.6322 24.4159 14.4165 24.416 15.333C24.416 16.2497 24.0893 17.0347 23.4365 17.6875C22.7839 18.3401 21.9995 18.6669 21.083 18.667C20.1663 18.667 19.3813 18.3403 18.7285 17.6875C18.0757 17.0347 17.749 16.2497 17.749 15.333C17.7491 14.4166 18.0759 13.6322 18.7285 12.9795C19.3813 12.3267 20.1663 12 21.083 12Z" fill="white"/>
</svg>
