<svg width="24" height="24" viewBox="0 0 24 24" fill="none" xmlns="http://www.w3.org/2000/svg">
<path d="M9.07026 2.00004C7.18686 1.99008 5.35328 3.80372 6.19035 6.05584H3.03141C2.50283 6.05584 1.9959 6.26582 1.62213 6.63958C1.24837 7.01334 1.03839 7.52028 1.03839 8.04886V10.0419C1.03839 10.3062 1.14338 10.5596 1.33026 10.7465C1.51714 10.9334 1.77061 11.0384 2.0349 11.0384H11.0035V8.04886H12.9965V11.0384H21.9651C22.2294 11.0384 22.4829 10.9334 22.6697 10.7465C22.8566 10.5596 22.9616 10.3062 22.9616 10.0419V8.04886C22.9616 7.52028 22.7516 7.01334 22.3779 6.63958C22.0041 6.26582 21.4972 6.05584 20.9686 6.05584H17.8097C18.9756 2.79725 14.5909 0.495311 12.568 3.30547L12 4.06282L11.432 3.28554C10.8042 2.39865 9.93723 2.01001 9.07026 2.00004ZM9.01047 4.06282C9.89737 4.06282 10.3458 5.13905 9.718 5.76685C9.09019 6.39465 8.01396 5.94622 8.01396 5.05933C8.01396 4.79504 8.11895 4.54157 8.30583 4.35469C8.49272 4.16781 8.74618 4.06282 9.01047 4.06282ZM14.9895 4.06282C15.8764 4.06282 16.3249 5.13905 15.6971 5.76685C15.0693 6.39465 13.993 5.94622 13.993 5.05933C13.993 4.79504 14.098 4.54157 14.2849 4.35469C14.4718 4.16781 14.7252 4.06282 14.9895 4.06282ZM2.0349 12.0349V20.007C2.0349 20.5356 2.24488 21.0425 2.61864 21.4163C2.99241 21.79 3.49934 22 4.02792 22H19.9721C20.5007 22 21.0076 21.79 21.3814 21.4163C21.7551 21.0425 21.9651 20.5356 21.9651 20.007V12.0349H12.9965V20.007H11.0035V12.0349H2.0349Z" fill="white"/>
</svg>
