<svg width="18" height="18" viewBox="0 0 18 18" fill="none" xmlns="http://www.w3.org/2000/svg">
<path fill-rule="evenodd" clip-rule="evenodd" d="M2.37842 3.87892C1.49942 4.75717 1.49942 6.17167 1.49942 8.99992C1.49942 11.8282 1.49942 13.2427 2.37842 14.1209C3.25742 14.9992 4.67117 14.9999 7.49942 14.9999H10.4994C13.3277 14.9999 14.7422 14.9999 15.6204 14.1209C16.4987 13.2419 16.4994 11.8282 16.4994 8.99992C16.4994 6.17167 16.4994 4.75717 15.6204 3.87892C14.7414 3.00067 13.3277 2.99992 10.4994 2.99992H7.49942C4.67117 2.99992 3.25667 2.99992 2.37842 3.87892ZM13.9314 5.63992C14.0269 5.75451 14.0729 5.90231 14.0594 6.05083C14.0459 6.19934 13.974 6.33642 13.8594 6.43192L12.2124 7.80442C11.5472 8.35942 11.0087 8.80792 10.5324 9.11392C10.0374 9.43267 9.55517 9.63367 8.99942 9.63367C8.44367 9.63367 7.96142 9.43192 7.46567 9.11392C6.99017 8.80792 6.45167 8.35867 5.78642 7.80517L4.13942 6.43267C4.02475 6.3372 3.9527 6.20007 3.93913 6.05148C3.92555 5.90288 3.97157 5.75497 4.06704 5.6403C4.16252 5.52563 4.29964 5.45358 4.44824 5.44001C4.59684 5.42643 4.74475 5.47245 4.85942 5.56792L6.47942 6.91717C7.17917 7.49992 7.66442 7.90342 8.07542 8.16742C8.47217 8.42242 8.74142 8.50867 9.00017 8.50867C9.25892 8.50867 9.52817 8.42317 9.92492 8.16742C10.3352 7.90342 10.8212 7.49992 11.5209 6.91717L13.1402 5.56717C13.2549 5.47182 13.4027 5.42592 13.5512 5.43957C13.6998 5.45321 13.836 5.52528 13.9314 5.63992Z" fill="white"/>
</svg>
