<svg width="28" height="28" viewBox="0 0 28 28" fill="none" xmlns="http://www.w3.org/2000/svg">
<path d="M14 4.66666C15.2377 4.66666 16.4247 5.15832 17.2998 6.03349C18.175 6.90866 18.6667 8.09565 18.6667 9.33332C18.6667 10.571 18.175 11.758 17.2998 12.6332C16.4247 13.5083 15.2377 14 14 14C12.7623 14 11.5753 13.5083 10.7002 12.6332C9.825 11.758 9.33334 10.571 9.33334 9.33332C9.33334 8.09565 9.825 6.90866 10.7002 6.03349C11.5753 5.15832 12.7623 4.66666 14 4.66666ZM14 23.3333C14 23.3333 23.3333 23.3333 23.3333 21C23.3333 18.2 18.7833 15.1667 14 15.1667C9.21667 15.1667 4.66667 18.2 4.66667 21C4.66667 23.3333 14 23.3333 14 23.3333Z" fill="white"/>
</svg>
