<svg width="18" height="18" viewBox="0 0 18 18" fill="none" xmlns="http://www.w3.org/2000/svg">
<path d="M9.52687 2C7.96349 2 6.46414 2.62105 5.35867 3.72653C4.25319 4.83201 3.63214 6.33136 3.63214 7.89474V10.8657C3.63226 10.9963 3.60199 11.1252 3.54372 11.2421L2.09782 14.1331C2.02719 14.2743 1.99384 14.4312 2.00094 14.589C2.00803 14.7467 2.05534 14.9001 2.13836 15.0344C2.22139 15.1687 2.33738 15.2796 2.47531 15.3565C2.61324 15.4334 2.76854 15.4737 2.92645 15.4737H16.1273C16.2852 15.4737 16.4405 15.4334 16.5784 15.3565C16.7164 15.2796 16.8324 15.1687 16.9154 15.0344C16.9984 14.9001 17.0457 14.7467 17.0528 14.589C17.0599 14.4312 17.0266 14.2743 16.9559 14.1331L15.5109 11.2421C15.4523 11.1253 15.4218 10.9964 15.4216 10.8657V7.89474C15.4216 6.33136 14.8006 4.83201 13.6951 3.72653C12.5896 2.62105 11.0903 2 9.52687 2ZM9.52687 18C9.00422 18.0003 8.49435 17.8384 8.06752 17.5368C7.6407 17.2352 7.31793 16.8086 7.14372 16.3158H11.91C11.7358 16.8086 11.4131 17.2352 10.9862 17.5368C10.5594 17.8384 10.0495 18.0003 9.52687 18Z" fill="white"/>
<rect x="11" width="6" height="6" rx="3" fill="#D03232"/>
</svg>
