<svg width="28" height="28" viewBox="0 0 28 28" fill="none" xmlns="http://www.w3.org/2000/svg">
<path d="M26.4589 1.7746C26.2518 1.72535 26.0339 1.75193 25.8448 1.84952L24.5 2.52108L23.1438 1.84296C23.0223 1.78221 22.8883 1.75059 22.7525 1.75059C22.6166 1.75059 22.4827 1.78221 22.3612 1.84296L20.988 2.52163L19.6328 1.84296C19.511 1.78177 19.3765 1.74991 19.2402 1.74991C19.1038 1.74991 18.9693 1.78177 18.8475 1.84296L17.5 2.51944L16.1629 1.8446C16.0414 1.78299 15.9071 1.75061 15.7709 1.75004C15.6347 1.74947 15.5002 1.78073 15.3781 1.84132L14 2.52218L12.6437 1.84241C12.5221 1.7817 12.3879 1.75009 12.2519 1.75009C12.1159 1.75009 11.9818 1.7817 11.8601 1.84241L10.5 2.52108L9.14156 1.84241C8.96644 1.75462 8.76692 1.72814 8.57496 1.76721C8.383 1.80628 8.2097 1.90863 8.08281 2.05788C7.94605 2.22088 7.87231 2.42754 7.875 2.6403V15.75L7.87773 15.7527H18.375C18.8391 15.7527 19.2842 15.9371 19.6124 16.2653C19.9406 16.5935 20.125 17.0386 20.125 17.5027V23.1875C20.125 24.879 21.9335 26.25 23.625 26.25H24.2812C25.0355 26.25 25.7588 25.9504 26.2921 25.4171C26.8254 24.8838 27.125 24.1604 27.125 23.4062V2.62499C27.1252 2.42915 27.0596 2.23891 26.9388 2.08474C26.8181 1.93056 26.6491 1.82135 26.4589 1.7746ZM22.75 13.125H15.7773C15.3048 13.125 14.8969 12.7619 14.8761 12.2894C14.8708 12.1713 14.8894 12.0533 14.931 11.9427C14.9725 11.832 15.036 11.7309 15.1176 11.6454C15.1993 11.56 15.2975 11.492 15.4061 11.4455C15.5148 11.399 15.6318 11.375 15.75 11.375H22.7227C23.1952 11.375 23.6031 11.7381 23.6239 12.2106C23.6292 12.3287 23.6106 12.4466 23.569 12.5573C23.5275 12.668 23.464 12.7691 23.3824 12.8545C23.3007 12.94 23.2025 13.008 23.0939 13.0545C22.9852 13.101 22.8682 13.125 22.75 13.125ZM22.75 8.74999H12.2773C11.8048 8.74999 11.3969 8.38686 11.3761 7.91436C11.3708 7.79628 11.3894 7.67834 11.431 7.56767C11.4725 7.45699 11.536 7.35588 11.6176 7.27042C11.6993 7.18497 11.7975 7.11695 11.9061 7.07047C12.0148 7.02399 12.1318 7.00002 12.25 6.99999H22.7227C23.1952 6.99999 23.6031 7.36311 23.6239 7.83561C23.6292 7.9537 23.6106 8.07163 23.569 8.18231C23.5275 8.29298 23.464 8.3941 23.3824 8.47955C23.3007 8.565 23.2025 8.63302 23.0939 8.6795C22.9852 8.72598 22.8682 8.74996 22.75 8.74999Z" fill="white"/>
<path d="M18.375 23.1875V18.375C18.375 18.1429 18.2828 17.9204 18.1187 17.7563C17.9546 17.5922 17.7321 17.5 17.5 17.5H2.625C2.16084 17.5014 1.71615 17.6867 1.38819 18.0151C1.06024 18.3436 0.875721 18.7886 0.875 19.2527C0.875 22.0172 1.19109 23.1667 1.66578 24.0417C2.47133 25.5276 3.92984 26.25 6.125 26.25H19.5606C19.6038 26.25 19.646 26.2373 19.6819 26.2134C19.7179 26.1895 19.7459 26.1555 19.7626 26.1157C19.7793 26.0759 19.7838 26.032 19.7756 25.9897C19.7674 25.9473 19.7468 25.9083 19.7165 25.8776C19.1991 25.3586 18.375 24.6641 18.375 23.1875Z" fill="white"/>
</svg>
