<svg width="28" height="28" viewBox="0 0 28 28" fill="none" xmlns="http://www.w3.org/2000/svg">
<path fill-rule="evenodd" clip-rule="evenodd" d="M6.76228 21.2377L25.0975 2.90246C23.9443 1.7493 21.7597 2.4775 17.3903 3.93388L6.5039 7.56255C4.07511 8.37212 2.86071 8.77691 2.4921 9.66744C2.40546 9.87674 2.35308 10.0986 2.33696 10.3246C2.26839 11.2859 3.17354 12.1911 4.98386 14.0013L5.31359 14.331C5.61074 14.6282 5.75932 14.7767 5.87163 14.9421C6.09314 15.2683 6.21888 15.65 6.23459 16.0439C6.24255 16.2437 6.21137 16.4515 6.14899 16.867C5.92069 18.3881 5.80654 19.1486 5.94102 19.7339C6.07393 20.3123 6.36293 20.829 6.76228 21.2377Z" fill="white"/>
<path opacity="0.5" d="M20.4139 21.5665L24.0662 10.6099C25.5227 6.24073 26.2509 4.05615 25.0977 2.90298L6.76245 21.2382C7.16851 21.6538 7.68866 21.9576 8.27483 22.101C8.85814 22.2437 9.62023 22.1403 11.1444 21.9335L11.2277 21.9222C11.6574 21.8638 11.8722 21.8347 12.0785 21.8471C12.453 21.8697 12.8146 21.9917 13.1263 22.2005C13.298 22.3155 13.4513 22.4688 13.7579 22.7754L14.051 23.0685C15.813 24.8304 16.694 25.7114 17.6286 25.6655C17.8862 25.6528 18.1394 25.5931 18.3755 25.4892C19.2319 25.1123 19.6259 23.9303 20.4139 21.5665Z" fill="white" fill-opacity="0.7"/>
</svg>
