<svg width="24" height="24" viewBox="0 0 24 24" fill="none" xmlns="http://www.w3.org/2000/svg">
<path d="M11.9062 14.625C12.6024 14.625 13.2701 14.3484 13.7624 13.8562C14.2547 13.3639 14.5312 12.6962 14.5312 12C14.5312 11.9231 14.5277 11.847 14.5212 11.7717L11.678 14.6149C11.7532 14.6215 11.8291 14.625 11.9062 14.625ZM20.595 3.88032L19.5937 2.88001C19.5586 2.84487 19.5109 2.82513 19.4612 2.82513C19.4115 2.82513 19.3638 2.84487 19.3287 2.88001L16.7665 5.4429C15.353 4.72055 13.7642 4.35938 12 4.35938C7.49531 4.35938 4.13437 6.70548 1.91719 11.3977C1.82807 11.5864 1.78185 11.7925 1.78185 12.0012C1.78185 12.2099 1.82807 12.416 1.91719 12.6047C2.80312 14.4708 3.86992 15.9665 5.11758 17.0918L2.63812 19.5703C2.60299 19.6055 2.58325 19.6532 2.58325 19.7029C2.58325 19.7526 2.60299 19.8002 2.63812 19.8354L3.63867 20.8359C3.67383 20.8711 3.7215 20.8908 3.77121 20.8908C3.82092 20.8908 3.86859 20.8711 3.90375 20.8359L20.595 4.14563C20.6124 4.12822 20.6263 4.10754 20.6357 4.08478C20.6451 4.06202 20.65 4.03762 20.65 4.01298C20.65 3.98834 20.6451 3.96394 20.6357 3.94118C20.6263 3.91841 20.6124 3.89773 20.595 3.88032ZM7.78125 12C7.78118 11.2875 7.96566 10.5872 8.31672 9.96717C8.66777 9.34717 9.17343 8.82867 9.78444 8.46218C10.3954 8.0957 11.0909 7.89372 11.8032 7.87592C12.5155 7.85812 13.2202 8.02512 13.8487 8.36063L12.7092 9.50016C12.2497 9.35301 11.7584 9.33529 11.2895 9.44894C10.8205 9.56259 10.3919 9.80323 10.0507 10.1444C9.70947 10.4857 9.46883 10.9143 9.35518 11.3832C9.24153 11.8522 9.25925 12.3434 9.4064 12.803L8.26687 13.9425C7.9471 13.345 7.78026 12.6777 7.78125 12Z" fill="white"/>
<path d="M22.0828 11.3949C21.2578 9.65742 20.2759 8.24063 19.1369 7.14453L15.7587 10.523C16.0434 11.2675 16.1066 12.0784 15.9404 12.8579C15.7742 13.6374 15.3859 14.3521 14.8223 14.9157C14.2588 15.4793 13.544 15.8676 12.7645 16.0338C11.985 16.1999 11.1741 16.1368 10.4297 15.852L7.56421 18.7175C8.89358 19.3327 10.3722 19.6402 12 19.6402C16.5047 19.6402 19.8656 17.2941 22.0828 12.602C22.1719 12.4132 22.2182 12.2071 22.2182 11.9984C22.2182 11.7897 22.1719 11.5836 22.0828 11.3949Z" fill="white"/>
</svg>
