<svg width="28" height="28" viewBox="0 0 28 28" fill="none" xmlns="http://www.w3.org/2000/svg">
<path fill-rule="evenodd" clip-rule="evenodd" d="M18.6589 6.5C18.771 6.59541 18.8503 6.78146 18.897 7.05814C18.953 7.33483 18.9763 7.63537 18.967 7.95976C18.9576 8.27461 18.911 8.56083 18.827 8.81844C18.743 9.0665 18.6216 9.21438 18.4629 9.26209C18.3976 9.28117 18.2623 9.30979 18.0569 9.34796C17.8609 9.37658 17.6789 9.41474 17.5109 9.46245C17.3522 9.51015 17.1422 9.59125 16.8809 9.70574C16.6195 9.82023 16.3955 9.98719 16.2088 10.2066C16.0595 10.3879 15.9381 10.5787 15.8448 10.7791C15.7515 10.9699 15.7001 11.218 15.6908 11.5233C15.6815 11.6473 15.6768 11.8811 15.6768 12.2245V13.3981V14.7004C15.6861 15.1297 15.6908 15.4971 15.6908 15.8024V16.3462C15.6815 16.6324 15.7095 16.8757 15.7748 17.0761C15.8401 17.2764 15.9101 17.3957 15.9848 17.4339C15.7515 17.6151 15.5181 17.7678 15.2848 17.8918C15.0608 18.0159 14.7387 18.1065 14.3187 18.1637C14.1601 18.1828 13.9827 18.1351 13.7867 18.0206C13.5907 17.9157 13.418 17.7487 13.2687 17.5197C13.1287 17.2812 13.054 16.9902 13.0447 16.6467C13.0447 16.3033 13.04 15.8644 13.0307 15.3301V13.5698C13.04 12.9306 13.04 12.2913 13.0307 11.6521C13.0213 11.3754 12.9793 11.113 12.9047 10.865C12.8393 10.6169 12.7273 10.4022 12.5686 10.2209C12.41 10.0301 12.2 9.8727 11.9386 9.74867C11.6773 9.62464 11.3506 9.54354 10.9586 9.50538C10.8559 9.49584 10.7159 9.46722 10.5385 9.41951C10.3612 9.37181 10.2398 9.3241 10.1745 9.2764C10.0718 9.20007 9.98784 9.05696 9.9225 8.84706C9.85716 8.62762 9.80583 8.3891 9.76849 8.13149C9.73116 7.86435 9.70315 7.60197 9.68449 7.34437C9.67515 7.08676 9.67515 6.87687 9.68449 6.71467C9.72182 6.72421 9.82449 6.73852 9.9925 6.7576C10.1698 6.77669 10.3799 6.79577 10.6225 6.81485C10.8652 6.82439 11.1032 6.83393 11.3366 6.84347C11.5046 6.85301 11.7286 6.86255 12.0086 6.87209C12.298 6.88164 12.606 6.89118 12.9327 6.90072C13.2593 6.91026 13.5674 6.9198 13.8567 6.92934H14.5707C14.8228 6.9198 15.1168 6.91026 15.4528 6.90072C15.7888 6.89118 16.1108 6.88164 16.4188 6.87209C16.7362 6.85301 16.9882 6.83393 17.1749 6.81485C17.3615 6.79577 17.5576 6.77192 17.7629 6.74329C17.9776 6.70513 18.1643 6.66697 18.3229 6.6288C18.4909 6.5811 18.6029 6.53816 18.6589 6.5ZM8.99841 17.7768C8.96107 17.7863 8.90507 17.8388 8.8304 17.9342C8.76506 18.0296 8.71839 18.1298 8.69039 18.2347C8.64372 18.3874 8.65772 18.5114 8.73239 18.6068C8.9284 18.8453 9.18042 19.1268 9.48843 19.4512C9.79645 19.766 10.1045 20.0666 10.4125 20.3528C10.7298 20.639 11.0005 20.8585 11.2245 21.0111C11.0565 21.4691 10.7905 21.8364 10.4265 22.1131C10.0718 22.3802 9.67511 22.509 9.23642 22.4995C8.79773 22.49 8.36837 22.2896 7.94835 21.8984C7.89235 21.8412 7.78501 21.7172 7.62633 21.5263C7.46766 21.326 7.28565 21.0922 7.08031 20.8251L6.46428 20.0236C6.25893 19.7565 6.08159 19.5227 5.93225 19.3224C5.78291 19.122 5.68957 18.998 5.65223 18.9503C5.47489 18.7118 5.30688 18.6593 5.14821 18.7929C4.98953 18.9264 4.89153 19.2031 4.85419 19.6229C4.83552 19.871 4.83552 20.1572 4.85419 20.4816C4.88219 20.7965 4.91953 21.0779 4.9662 21.326C5.0222 21.574 5.0782 21.7219 5.13421 21.7696C4.9382 21.9223 4.69552 22.0654 4.40617 22.199C4.11682 22.3325 3.78547 22.4136 3.41212 22.4423C3.27211 22.4518 3.10877 22.4136 2.92209 22.3278C2.73542 22.2419 2.57207 22.1036 2.43207 21.9127C2.30139 21.7124 2.23139 21.4643 2.22206 21.1686C2.22206 21.0922 2.21739 20.8919 2.20806 20.5675C2.20806 20.2431 2.20339 19.8471 2.19406 19.3796V17.9056C2.19406 17.3999 2.18939 16.9229 2.18005 16.4744V15.3868V14.9717C2.18005 14.4088 2.16605 13.9413 2.13805 13.5692C2.11005 13.1876 1.99804 12.8966 1.80203 12.6962C1.62469 12.515 1.48935 12.2526 1.39601 11.9091C1.31201 11.5657 1.27467 11.2413 1.28401 10.936C1.32134 10.9455 1.43335 10.9598 1.62003 10.9789C1.8067 10.9884 1.98871 11.0027 2.16605 11.0218H2.68408C2.91743 11.0123 3.16477 11.0027 3.42612 10.9932C3.68747 10.9837 3.93014 10.9789 4.15416 10.9789C4.37817 10.9693 4.54618 10.9598 4.65818 10.9503H5.12021C5.35355 10.9407 5.62423 10.936 5.93225 10.936C6.24026 10.936 6.55295 10.9407 6.8703 10.9503C7.18765 10.9503 7.48166 10.9598 7.75234 10.9789C8.02302 10.998 8.23303 11.0218 8.38237 11.0504C8.99841 11.1649 9.47443 11.3748 9.81045 11.6801C10.1465 11.9855 10.3845 12.3528 10.5245 12.7821C10.6738 13.2115 10.7625 13.679 10.7905 14.1846C10.8092 14.614 10.7625 15.0624 10.6505 15.5299C10.5385 15.9974 10.3471 16.4315 10.0765 16.8322C9.80578 17.2329 9.44643 17.5478 8.99841 17.7768ZM4.88219 14.6998C4.88219 15.0051 4.9522 15.2341 5.0922 15.3868C5.23221 15.5299 5.36288 15.6158 5.48422 15.6444C5.65223 15.6825 5.86691 15.6873 6.12826 15.6587C6.38961 15.6205 6.65095 15.5537 6.9123 15.4583C7.17364 15.3534 7.39299 15.2198 7.57033 15.0576C7.75701 14.8954 7.85035 14.7094 7.85035 14.4995C7.85035 14.2228 7.73834 14.0129 7.51433 13.8698C7.29032 13.7171 7.00564 13.6217 6.66029 13.5835C6.32427 13.5454 5.98825 13.5549 5.65223 13.6122C5.39089 13.6503 5.19488 13.7696 5.0642 13.97C4.93353 14.1703 4.87286 14.4136 4.88219 14.6998ZM26.3453 11.5089C25.944 11.2322 25.3979 11.0414 24.7072 10.9364C24.2685 10.8696 23.8345 10.8315 23.4052 10.8219C22.9758 10.8124 22.5885 10.8172 22.2431 10.8362C21.9071 10.8553 21.6364 10.8744 21.4311 10.8935C21.2817 10.903 21.0857 10.9173 20.843 10.9364C20.6004 10.946 20.3483 10.9603 20.087 10.9794C19.835 10.9984 19.6016 11.0127 19.387 11.0223H18.9249C18.7383 11.0032 18.5609 10.9889 18.3929 10.9794C18.2249 10.9603 18.1222 10.946 18.0849 10.9364C18.0756 11.2608 18.1222 11.6043 18.2249 11.9668C18.3369 12.3294 18.4909 12.5965 18.6869 12.7683C18.7989 12.8637 18.8689 13.0879 18.8969 13.4409C18.9343 13.7939 18.9576 14.228 18.9669 14.7432V16.2889C18.9669 16.8422 18.9623 17.3956 18.9529 17.949C18.9529 18.5023 18.9483 19.0128 18.9389 19.4803V20.6395C18.9389 20.9448 18.9436 21.1261 18.9529 21.1833C19.0089 21.5173 19.135 21.7796 19.331 21.9705C19.527 22.1517 19.7463 22.2758 19.989 22.3426C20.241 22.4093 20.4697 22.4284 20.675 22.3998C20.927 22.3616 21.1371 22.2996 21.3051 22.2137C21.4731 22.1279 21.6691 21.98 21.8931 21.7701C21.8558 21.6938 21.8044 21.5554 21.7391 21.3551C21.6737 21.1452 21.6411 20.9162 21.6411 20.6681V20.1386C21.6504 19.7665 21.7391 19.4326 21.9071 19.1368C22.0844 18.8315 22.3178 18.5834 22.6071 18.3926C22.9058 18.2018 23.2325 18.0969 23.5872 18.0778H23.8112C23.9419 18.0682 24.0865 18.0587 24.2452 18.0491C24.4039 18.0396 24.5346 18.0301 24.6372 18.0205C25.2253 17.9633 25.7153 17.8011 26.1073 17.5339C26.4993 17.2573 26.812 16.9329 27.0454 16.5608C27.288 16.1791 27.4607 15.7927 27.5634 15.4016C27.6661 15.0008 27.7174 14.6478 27.7174 14.3425C27.7174 14.104 27.6894 13.8178 27.6334 13.4838C27.5774 13.1404 27.4514 12.7921 27.2554 12.4391C27.0594 12.0861 26.756 11.776 26.3453 11.5089ZM23.5312 15.3729C23.3352 15.4016 23.1718 15.4111 23.0412 15.4016C22.8171 15.392 22.5978 15.3395 22.3831 15.2441C22.1778 15.1487 22.0051 15.0295 21.8651 14.8863C21.7344 14.7337 21.6644 14.5667 21.6551 14.3854C21.6551 14.1088 21.7904 13.8702 22.0611 13.6699C22.3318 13.46 22.6585 13.3503 23.0412 13.3407C23.3025 13.3312 23.5732 13.355 23.8532 13.4123C24.1425 13.4695 24.3852 13.5745 24.5812 13.7271C24.7866 13.8798 24.8892 14.0945 24.8892 14.3711C24.8892 14.5715 24.8192 14.7432 24.6792 14.8863C24.5392 15.0199 24.3619 15.1249 24.1472 15.2012C23.9419 15.2775 23.7365 15.3348 23.5312 15.3729Z" fill="url(#paint0_linear_700_95328)"/>
<defs>
<linearGradient id="paint0_linear_700_95328" x1="14.5" y1="6.5" x2="14.5" y2="22.5" gradientUnits="userSpaceOnUse">
<stop stop-color="#FDF76E"/>
<stop offset="1" stop-color="#FE001C"/>
</linearGradient>
</defs>
</svg>
