<svg width="24" height="24" viewBox="0 0 24 24" fill="none" xmlns="http://www.w3.org/2000/svg">
<g clip-path="url(#clip0_700_95327)">
<path d="M19.5133 14.0895L13.0978 2.90699C12.9373 2.62815 12.7234 2.38367 12.4684 2.18749C12.2134 1.99132 11.9222 1.8473 11.6115 1.76366C10.9794 1.59461 10.3061 1.6805 9.73667 2.00282L8.34134 2.81482C8.30565 2.83021 8.27437 2.85428 8.25034 2.88482L8.16984 2.98633C8.0854 3.07629 8.02623 3.18697 7.99834 3.30716C7.50081 4.82588 6.88123 6.30186 6.14567 7.72066C5.62874 8.59392 4.93103 9.34653 4.09934 9.92799L2.00634 11.7807C1.58209 12.1592 1.29974 12.6712 1.20601 13.232C1.1464 13.6136 1.16988 14.0036 1.27484 14.3753C0.987841 14.534 0.738175 14.7533 0.543341 15.017C0.34598 15.2754 0.202016 15.5704 0.119841 15.885C0.0579533 16.206 0.0579533 16.5358 0.119841 16.8568C0.208732 17.5019 0.546167 18.0868 1.06017 18.4867C1.31684 18.6827 1.61201 18.825 1.92701 18.9043C2.13234 18.9595 2.34195 18.986 2.55584 18.9837C2.6694 18.9953 2.78373 18.9953 2.89884 18.9837C3.21617 18.9452 3.52067 18.8355 3.79017 18.664C4.04217 18.9475 4.36067 19.1633 4.71651 19.294C4.99301 19.4025 5.28817 19.4573 5.58567 19.4527C5.74823 19.4565 5.90845 19.4375 6.06634 19.3955L7.92951 22.724C8.15198 23.0968 8.46661 23.4062 8.84315 23.6224C9.2197 23.8385 9.64551 23.9542 10.0797 23.9583C10.6224 23.9517 11.1482 23.7685 11.5775 23.4363C12.0067 23.1041 12.316 22.6411 12.4585 22.1173C12.6198 21.4846 12.5339 20.8141 12.2182 20.2425L10.8228 17.8182C11.1993 17.7342 11.5804 17.6883 11.9662 17.6805C13.5937 17.7493 15.2118 17.9558 16.8032 18.2988H17.2033L17.3865 18.2172L17.558 18.1145L18.7818 17.4063C19.3442 17.0808 19.756 16.5465 19.9252 15.92C20.0311 15.2795 19.8834 14.6229 19.5133 14.0895ZM5.64284 17.7727C5.48011 17.8298 5.30274 17.8298 5.14001 17.7727C4.97908 17.7154 4.84465 17.6013 4.76201 17.4518L3.02367 14.4103L2.91051 14.2155C2.8225 14.0615 2.79034 13.8819 2.81946 13.7069C2.84858 13.532 2.9372 13.3725 3.07034 13.2553L4.36184 12.112L4.84251 12.9578L7.32401 17.3037L5.64284 17.7727ZM18.0958 15.486C18.0397 15.6805 17.9133 15.8472 17.7412 15.9538L17.1007 16.3202L9.94201 3.84382L10.5942 3.46699C10.6776 3.41729 10.7705 3.38551 10.8669 3.37366C10.9633 3.3618 11.0612 3.37015 11.1542 3.39816C11.2494 3.42189 11.339 3.46446 11.4176 3.52337C11.4961 3.58228 11.5621 3.65634 11.6115 3.74116L18.027 14.9132C18.0841 15.0086 18.1197 15.1153 18.1316 15.2259C18.1435 15.3364 18.1313 15.4483 18.0958 15.5537V15.486ZM17.7983 8.69249C17.648 8.69505 17.4997 8.65721 17.369 8.58292C17.2383 8.50864 17.1299 8.40062 17.0552 8.27016C16.9498 8.0764 16.9231 7.84947 16.9807 7.63654C17.0382 7.42361 17.1756 7.24106 17.3643 7.12683L20.2227 5.46783C20.4158 5.35943 20.6437 5.33109 20.8575 5.3889C21.0713 5.4467 21.2538 5.58604 21.366 5.77699C21.4714 5.97075 21.4981 6.19768 21.4405 6.41061C21.383 6.62354 21.2455 6.80609 21.0568 6.92033L18.1985 8.57816C18.0772 8.65019 17.9394 8.68958 17.7983 8.69249ZM23.0693 12.7408H19.7653C19.6527 12.7408 19.5412 12.7186 19.4372 12.6756C19.3332 12.6325 19.2386 12.5693 19.159 12.4897C19.0794 12.41 19.0162 12.3155 18.9731 12.2115C18.93 12.1074 18.9078 11.9959 18.9078 11.8833C18.9078 11.7707 18.93 11.6592 18.9731 11.5552C19.0162 11.4511 19.0794 11.3566 19.159 11.277C19.2386 11.1974 19.3332 11.1342 19.4372 11.0911C19.5412 11.048 19.6527 11.0258 19.7653 11.0258H23.0693C23.2968 11.0258 23.5149 11.1162 23.6757 11.277C23.8365 11.4378 23.9268 11.6559 23.9268 11.8833C23.9268 12.1107 23.8365 12.3289 23.6757 12.4897C23.5149 12.6505 23.2968 12.7408 23.0693 12.7408ZM15.0998 4.61032C14.9509 4.61155 14.8044 4.57201 14.6763 4.49599C14.4838 4.38535 14.3425 4.20354 14.2827 3.9897C14.2229 3.77586 14.2495 3.5471 14.3567 3.35266L16.0028 0.470991C16.1213 0.283493 16.3077 0.149091 16.523 0.0959295C16.7383 0.0427683 16.9658 0.074972 17.1579 0.185796C17.35 0.296621 17.4918 0.477471 17.5535 0.690472C17.6153 0.903474 17.5922 1.13211 17.4892 1.32849L15.843 4.19849C15.766 4.32618 15.6569 4.43143 15.5264 4.5037C15.396 4.57597 15.2489 4.61274 15.0998 4.61032Z" fill="white"/>
</g>
<defs>
<clipPath id="clip0_700_95327">
<rect width="24" height="24" fill="white"/>
</clipPath>
</defs>
</svg>
