<svg width="20" height="20" viewBox="0 0 20 20" fill="none" xmlns="http://www.w3.org/2000/svg">
<path d="M10.8333 4.50001C10.8333 4.19059 10.7104 3.89384 10.4916 3.67505C10.2728 3.45625 9.97609 3.33334 9.66667 3.33334H4.5C4.19058 3.33334 3.89384 3.45625 3.67504 3.67505C3.45625 3.89384 3.33333 4.19059 3.33333 4.50001V15.5C3.33333 15.8094 3.45625 16.1062 3.67504 16.325C3.89384 16.5438 4.19058 16.6667 4.5 16.6667H9.66667C9.97609 16.6667 10.2728 16.5438 10.4916 16.325C10.7104 16.1062 10.8333 15.8094 10.8333 15.5V13.3333C10.8333 13.1123 10.9211 12.9004 11.0774 12.7441C11.2337 12.5878 11.4457 12.5 11.6667 12.5C11.8877 12.5 12.0996 12.5878 12.2559 12.7441C12.4122 12.9004 12.5 13.1123 12.5 13.3333V15.5C12.5 16.2515 12.2015 16.9721 11.6701 17.5035C11.1388 18.0348 10.4181 18.3333 9.66667 18.3333H4.5C3.74855 18.3333 3.02788 18.0348 2.49653 17.5035C1.96518 16.9721 1.66667 16.2515 1.66667 15.5V4.50001C1.66667 3.74856 1.96518 3.02789 2.49653 2.49654C3.02788 1.96518 3.74855 1.66667 4.5 1.66667H9.66667C10.0387 1.66667 10.4072 1.73996 10.7509 1.88235C11.0947 2.02473 11.407 2.23344 11.6701 2.49654C11.9332 2.75964 12.1419 3.07198 12.2843 3.41574C12.4267 3.75949 12.5 4.12793 12.5 4.50001V6.66667C12.5 6.88769 12.4122 7.09965 12.2559 7.25593C12.0996 7.41221 11.8877 7.50001 11.6667 7.50001C11.4457 7.50001 11.2337 7.41221 11.0774 7.25593C10.9211 7.09965 10.8333 6.88769 10.8333 6.66667V4.50001Z" fill="white"/>
<path d="M14.411 6.91083C14.5673 6.7546 14.7792 6.66684 15.0002 6.66684C15.2212 6.66684 15.4331 6.7546 15.5893 6.91083L18.0893 9.41083C18.2456 9.5671 18.3333 9.77902 18.3333 9.99999C18.3333 10.221 18.2456 10.4329 18.0893 10.5892L15.5893 13.0892C15.4322 13.241 15.2217 13.325 15.0032 13.3231C14.7847 13.3212 14.5757 13.2335 14.4212 13.079C14.2667 12.9245 14.179 12.7155 14.1771 12.497C14.1752 12.2785 14.2592 12.068 14.411 11.9108L15.4885 10.8333H5.83352C5.6125 10.8333 5.40054 10.7455 5.24426 10.5893C5.08798 10.433 5.00018 10.221 5.00018 9.99999C5.00018 9.77898 5.08798 9.56702 5.24426 9.41074C5.40054 9.25446 5.6125 9.16666 5.83352 9.16666H15.4885L14.411 8.08916C14.2548 7.93289 14.167 7.72097 14.167 7.49999C14.167 7.27902 14.2548 7.0671 14.411 6.91083Z" fill="white"/>
</svg>
