<svg width="28" height="28" viewBox="0 0 28 28" fill="none" xmlns="http://www.w3.org/2000/svg">
<path d="M18.7085 20.75C18.4322 20.75 18.1673 20.8597 17.9719 21.0551C17.7766 21.2504 17.6668 21.5154 17.6668 21.7917V24.9167H3.08335V6.16667H6.20837V7.20833C6.20837 7.4846 6.31814 7.74955 6.51349 7.9449C6.70884 8.14025 6.97378 8.25 7.25005 8.25H13.5001C13.7764 8.25 14.0413 8.14025 14.2367 7.9449C14.432 7.74955 14.5418 7.4846 14.5418 7.20833V6.16667H17.6668C17.6668 6.44293 17.7766 6.70789 17.9719 6.90324C18.1673 7.09859 18.4322 7.20833 18.7085 7.20833C18.9847 7.20833 19.2497 7.09859 19.445 6.90324C19.6404 6.70789 19.7501 6.44293 19.7501 6.16667C19.7501 5.61413 19.5306 5.08423 19.1399 4.69353C18.7492 4.30282 18.2193 4.08333 17.6668 4.08333H14.3501C14.1354 3.47614 13.7384 2.9501 13.2133 2.57718C12.6882 2.20426 12.0608 2.00267 11.4167 2H9.3334C8.68937 2.00267 8.06193 2.20426 7.53685 2.57718C7.01178 2.9501 6.61473 3.47614 6.40006 4.08333H3.08335C2.53081 4.08333 2.00093 4.30282 1.61023 4.69353C1.21953 5.08423 1 5.61413 1 6.16667V24.9167C1 25.4692 1.21953 25.9991 1.61023 26.3898C2.00093 26.7805 2.53081 27 3.08335 27H17.6668C18.2193 27 18.7492 26.7805 19.1399 26.3898C19.5306 25.9991 19.7501 25.4692 19.7501 24.9167V21.7917C19.7501 21.5154 19.6404 21.2504 19.445 21.0551C19.2497 20.8597 18.9847 20.75 18.7085 20.75ZM8.29172 5.125C8.29172 4.84873 8.40148 4.58378 8.59684 4.38843C8.79219 4.19308 9.05713 4.08333 9.3334 4.08333H11.4167C11.693 4.08333 11.958 4.19308 12.1533 4.38843C12.3487 4.58378 12.4584 4.84873 12.4584 5.125V6.16667H8.29172V5.125ZM11.4167 13.4583H6.20837C5.9321 13.4583 5.66716 13.3486 5.47181 13.1532C5.27646 12.9579 5.1667 12.6929 5.1667 12.4167C5.1667 12.1404 5.27646 11.8754 5.47181 11.6801C5.66716 11.4847 5.9321 11.375 6.20837 11.375H11.4167C11.693 11.375 11.958 11.4847 12.1533 11.6801C12.3487 11.8754 12.4584 12.1404 12.4584 12.4167C12.4584 12.6929 12.3487 12.9579 12.1533 13.1532C11.958 13.3486 11.693 13.4583 11.4167 13.4583ZM9.3334 16.5833C9.3334 16.8596 9.22363 17.1246 9.02828 17.3199C8.83293 17.5153 8.56799 17.625 8.29172 17.625H6.20837C5.9321 17.625 5.66716 17.5153 5.47181 17.3199C5.27646 17.1246 5.1667 16.8596 5.1667 16.5833C5.1667 16.3071 5.27646 16.0421 5.47181 15.8468C5.66716 15.6514 5.9321 15.5417 6.20837 15.5417H8.29172C8.56799 15.5417 8.83293 15.6514 9.02828 15.8468C9.22363 16.0421 9.3334 16.3071 9.3334 16.5833ZM9.3334 20.75C9.3334 21.0263 9.22363 21.2912 9.02828 21.4866C8.83293 21.6819 8.56799 21.7917 8.29172 21.7917H6.20837C5.9321 21.7917 5.66716 21.6819 5.47181 21.4866C5.27646 21.2912 5.1667 21.0263 5.1667 20.75C5.1667 20.4737 5.27646 20.2088 5.47181 20.0134C5.66716 19.8181 5.9321 19.7083 6.20837 19.7083H8.29172C8.56799 19.7083 8.83293 19.8181 9.02828 20.0134C9.22363 20.2088 9.3334 20.4737 9.3334 20.75ZM25.6949 9.59687L22.5699 6.47187C22.3746 6.27659 22.1097 6.16689 21.8335 6.16689C21.5573 6.16689 21.2924 6.27659 21.0971 6.47187L10.6803 16.8885C10.4849 17.0838 10.3751 17.3488 10.3751 17.625V20.75C10.3751 21.0263 10.4848 21.2912 10.6802 21.4866C10.8755 21.6819 11.1405 21.7917 11.4167 21.7917H14.5418C14.818 21.7916 15.0829 21.6818 15.2782 21.4865L25.6949 11.0698C25.8902 10.8745 26 10.6095 26 10.3333C26 10.0571 25.8902 9.79222 25.6949 9.59687ZM14.1105 19.7083H12.4584V18.0563L21.8335 8.68125L23.4856 10.3333L14.1105 19.7083Z" fill="white"/>
</svg>
