<svg width="38" height="38" viewBox="0 0 38 38" fill="none" xmlns="http://www.w3.org/2000/svg">
<path d="M31.8503 19.1653C32.6625 19.2878 33.4276 18.7284 33.4742 17.9083C33.6363 15.058 33.033 12.2063 31.714 9.65402C30.1665 6.65987 27.7131 4.23084 24.7037 2.7134C21.6942 1.19596 18.2824 0.667617 14.955 1.20373C11.6275 1.73984 8.55431 3.31302 6.17375 5.69888C3.79318 8.08474 2.22683 11.1614 1.69811 14.4901C1.1694 17.8187 1.70532 21.2293 3.22944 24.2354C4.75357 27.2415 7.18804 29.6895 10.1856 31.2302C12.7408 32.5436 15.5939 33.1406 18.4438 32.9722C19.2638 32.9237 19.8215 32.1574 19.6971 31.3455C19.5728 30.5336 18.813 29.9852 17.9922 30.0162C15.7643 30.1005 13.543 29.6116 11.5454 28.5848C9.10509 27.3304 7.1232 25.3375 5.88242 22.8903C4.64164 20.4431 4.20535 17.6665 4.63577 14.9567C5.0662 12.2469 6.34136 9.74214 8.27936 7.79983C10.2174 5.85751 12.7192 4.57679 15.4281 4.14034C18.137 3.7039 20.9145 4.13402 23.3645 5.36936C25.8145 6.6047 27.8118 8.58216 29.0715 11.0197C30.1027 13.015 30.5966 15.2352 30.5173 17.4633C30.4881 18.2841 31.0382 19.0427 31.8503 19.1653Z" fill="white"/>
<path d="M22.98 19.16C22.9694 19.5547 22.884 19.9707 22.724 20.408C22.564 20.8347 22.324 21.2453 22.004 21.64C21.684 22.024 21.2787 22.3547 20.788 22.632C20.308 22.9094 19.748 23.096 19.108 23.192C19.012 23.2027 18.8894 23.2773 18.74 23.416C18.5907 23.5547 18.516 23.7094 18.516 23.88C18.5054 24.04 18.4627 24.1467 18.388 24.2C18.324 24.264 18.2493 24.3173 18.164 24.36C18.0893 24.392 17.9827 24.4027 17.844 24.392C17.716 24.392 17.5933 24.376 17.476 24.344C17.3694 24.3013 17.2947 24.2 17.252 24.04C17.2094 23.8907 17.1827 23.7787 17.172 23.704C17.172 23.6187 17.1133 23.5067 16.996 23.368C16.8893 23.2294 16.7134 23.1387 16.468 23.096C15.9774 23 15.5133 22.8613 15.076 22.68C14.6387 22.4987 14.2494 22.2694 13.908 21.992C13.812 21.9067 13.7 21.752 13.572 21.528C13.4547 21.304 13.3693 21.0534 13.316 20.776C13.2733 20.488 13.3 20.2053 13.396 19.928C13.5027 19.6507 13.7267 19.416 14.068 19.224C14.42 19.0213 14.932 18.904 15.604 18.872C15.476 19.2347 15.684 19.576 16.228 19.896C16.388 19.992 16.5427 20.0294 16.692 20.008C16.852 19.976 16.964 19.9013 17.028 19.784C17.092 19.6773 17.1454 19.5227 17.188 19.32C17.2307 19.1067 17.252 18.8827 17.252 18.648C17.2627 18.4027 17.2467 18.1947 17.204 18.024C17.172 17.8747 17.0654 17.736 16.884 17.608C16.7134 17.4694 16.5533 17.3787 16.404 17.336C15.2733 16.984 14.452 16.536 13.94 15.992C13.4387 15.448 13.172 14.8667 13.14 14.248C13.108 13.5547 13.2467 12.9467 13.556 12.424C13.8654 11.8907 14.2867 11.448 14.82 11.096C15.364 10.744 15.9667 10.504 16.628 10.376C16.692 10.3547 16.788 10.296 16.916 10.2C17.0547 10.104 17.1454 9.95468 17.188 9.75202C17.2094 9.63468 17.2253 9.53868 17.236 9.46402C17.2467 9.37868 17.252 9.26668 17.252 9.12802C17.252 9.05335 17.332 8.98935 17.492 8.93602C17.5987 8.90402 17.716 8.88802 17.844 8.88802C17.9827 8.88802 18.1054 8.89868 18.212 8.92002C18.3614 8.97335 18.436 9.04268 18.436 9.12802C18.436 9.29868 18.4414 9.41068 18.452 9.46402C18.4627 9.50668 18.484 9.58668 18.516 9.70402C18.5373 9.81068 18.6014 9.92802 18.708 10.056C18.8147 10.1733 18.932 10.2427 19.06 10.264C19.5827 10.36 20.068 10.52 20.516 10.744C20.9747 10.968 21.3534 11.24 21.652 11.56C21.9614 11.8693 22.148 12.2 22.212 12.552C22.244 12.7227 22.18 12.872 22.02 13C21.8707 13.1173 21.668 13.2187 21.412 13.304C21.1667 13.3893 20.916 13.4533 20.66 13.496C20.404 13.5387 20.1854 13.56 20.004 13.56C19.8334 13.56 19.7427 13.5387 19.732 13.496C19.7107 13.3787 19.6467 13.2613 19.54 13.144C19.4333 13.0267 19.2947 12.9307 19.124 12.856C19.028 12.8133 18.916 12.8187 18.788 12.872C18.6707 12.9253 18.5907 13.0587 18.548 13.272C18.5373 13.3253 18.5214 13.4427 18.5 13.624C18.4787 13.7947 18.4627 13.9867 18.452 14.2C18.452 14.4133 18.468 14.6107 18.5 14.792C18.5427 14.9733 18.6387 15.1333 18.788 15.272C18.9374 15.4107 19.0653 15.496 19.172 15.528C19.94 15.7307 20.612 15.9707 21.188 16.248C21.764 16.5253 22.212 16.8933 22.532 17.352C22.852 17.8 23.0014 18.4027 22.98 19.16ZM16.196 13.624C16.164 13.8053 16.1587 13.9547 16.18 14.072C16.212 14.1787 16.34 14.3173 16.564 14.488C16.6387 14.552 16.7453 14.5787 16.884 14.568C17.0333 14.5573 17.1294 14.472 17.172 14.312C17.2254 14.0667 17.2414 13.8213 17.22 13.576C17.2093 13.3307 17.1827 13.1493 17.14 13.032C17.0867 12.8827 16.9853 12.824 16.836 12.856C16.6973 12.888 16.564 12.9787 16.436 13.128C16.308 13.2667 16.228 13.432 16.196 13.624ZM19.94 19.416C20.004 19.1813 19.9773 18.9734 19.86 18.792C19.7427 18.6107 19.5987 18.4667 19.428 18.36C19.2574 18.2533 19.124 18.1894 19.028 18.168C18.8894 18.136 18.772 18.1733 18.676 18.28C18.5907 18.3867 18.5267 18.4987 18.484 18.616C18.452 18.712 18.4307 18.8934 18.42 19.16C18.42 19.416 18.452 19.672 18.516 19.928C18.548 20.0667 18.6493 20.1733 18.82 20.248C19.0014 20.312 19.1453 20.3174 19.252 20.264C19.4227 20.1787 19.5667 20.0827 19.684 19.976C19.8013 19.8587 19.8867 19.672 19.94 19.416Z" fill="white"/>
<mask id="mask0_1218_72991" style="mask-type:luminance" maskUnits="userSpaceOnUse" x="23" y="23" width="13" height="14">
<path d="M29.4285 24.75V35.0001M29.4285 35.0001L34.4285 29.7609M29.4285 35.0001L24.4285 29.7609" stroke="white" stroke-width="2.53333" stroke-linecap="round" stroke-linejoin="round"/>
</mask>
<g mask="url(#mask0_1218_72991)">
<path d="M21.5 22H36.5V37H21.5V22Z" fill="white"/>
</g>
</svg>
