<svg width="16" height="16" viewBox="0 0 16 16" fill="none" xmlns="http://www.w3.org/2000/svg">
<g clip-path="url(#clip0_993_86984)">
<path d="M12 3.33333H12.6667V4C12.6667 4.17681 12.7369 4.34638 12.8619 4.4714C12.9869 4.59643 13.1565 4.66667 13.3333 4.66667C13.5101 4.66667 13.6797 4.59643 13.8047 4.4714C13.9298 4.34638 14 4.17681 14 4V3.33333H14.6667C14.8435 3.33333 15.013 3.2631 15.1381 3.13807C15.2631 3.01305 15.3333 2.84348 15.3333 2.66667C15.3333 2.48986 15.2631 2.32029 15.1381 2.19526C15.013 2.07024 14.8435 2 14.6667 2H14V1.33333C14 1.15652 13.9298 0.986953 13.8047 0.861929C13.6797 0.736905 13.5101 0.666667 13.3333 0.666667C13.1565 0.666667 12.9869 0.736905 12.8619 0.861929C12.7369 0.986953 12.6667 1.15652 12.6667 1.33333V2H12C11.8232 2 11.6536 2.07024 11.5286 2.19526C11.4036 2.32029 11.3333 2.48986 11.3333 2.66667C11.3333 2.84348 11.4036 3.01305 11.5286 3.13807C11.6536 3.2631 11.8232 3.33333 12 3.33333ZM4.66666 4.66667V11.3333C4.66666 11.5101 4.7369 11.6797 4.86192 11.8047C4.98695 11.9298 5.15652 12 5.33333 12C5.51014 12 5.67971 11.9298 5.80473 11.8047C5.92975 11.6797 5.99999 11.5101 5.99999 11.3333V4.66667C5.99999 4.48986 5.92975 4.32029 5.80473 4.19526C5.67971 4.07024 5.51014 4 5.33333 4C5.15652 4 4.98695 4.07024 4.86192 4.19526C4.7369 4.32029 4.66666 4.48986 4.66666 4.66667ZM14.4 6C14.3142 6.01749 14.2327 6.05172 14.1601 6.10073C14.0875 6.14973 14.0253 6.21256 13.977 6.28561C13.9287 6.35866 13.8953 6.44051 13.8787 6.52648C13.862 6.61246 13.8625 6.70087 13.88 6.78667C14.1403 8.05081 13.986 9.36518 13.4401 10.5347C12.8941 11.7042 11.9856 12.6665 10.8494 13.2787C9.71321 13.8909 8.40987 14.1205 7.13286 13.9332C5.85586 13.746 4.67327 13.152 3.76064 12.2394C2.848 11.3267 2.25398 10.1441 2.06675 8.86713C1.87951 7.59013 2.10905 6.28679 2.72128 5.15058C3.33351 4.01437 4.2958 3.10587 5.46531 2.55992C6.63481 2.01398 7.94919 1.85971 9.21333 2.12C9.39014 2.15536 9.57375 2.11904 9.72378 2.01902C9.87381 1.919 9.97796 1.76348 10.0133 1.58667C10.0487 1.40986 10.0124 1.22624 9.91234 1.07621C9.81233 0.926181 9.6568 0.822029 9.47999 0.786667C8.99211 0.695768 8.49614 0.655554 7.99999 0.666667C6.5496 0.666667 5.13177 1.09676 3.92581 1.90256C2.71985 2.70835 1.77992 3.85366 1.22488 5.19366C0.669834 6.53365 0.524609 8.00814 0.807568 9.43066C1.09053 10.8532 1.78896 12.1599 2.81454 13.1855C3.84013 14.211 5.1468 14.9095 6.56933 15.1924C7.99186 15.4754 9.46635 15.3302 10.8063 14.7751C12.1463 14.2201 13.2916 13.2801 14.0974 12.0742C14.9032 10.8682 15.3333 9.4504 15.3333 8C15.3347 7.50738 15.2856 7.01592 15.1867 6.53333C15.1707 6.44633 15.1376 6.36337 15.0892 6.2893C15.0409 6.21522 14.9783 6.15151 14.9051 6.10187C14.8318 6.05224 14.7495 6.01766 14.6628 6.00017C14.5761 5.98268 14.4867 5.98263 14.4 6ZM7.33333 6V6.66667C7.33627 7.16004 7.52147 7.63491 7.85333 8C7.52147 8.36509 7.33627 8.83996 7.33333 9.33333V10C7.33333 10.5304 7.54404 11.0391 7.91911 11.4142C8.29418 11.7893 8.80289 12 9.33333 12H9.99999C10.5304 12 11.0391 11.7893 11.4142 11.4142C11.7893 11.0391 12 10.5304 12 10V9.33333C11.9971 8.83996 11.8119 8.36509 11.48 8C11.8119 7.63491 11.9971 7.16004 12 6.66667V6C12 5.46957 11.7893 4.96086 11.4142 4.58579C11.0391 4.21071 10.5304 4 9.99999 4H9.33333C8.80289 4 8.29418 4.21071 7.91911 4.58579C7.54404 4.96086 7.33333 5.46957 7.33333 6ZM10.6667 10C10.6667 10.1768 10.5964 10.3464 10.4714 10.4714C10.3464 10.5964 10.1768 10.6667 9.99999 10.6667H9.33333C9.15652 10.6667 8.98695 10.5964 8.86192 10.4714C8.7369 10.3464 8.66666 10.1768 8.66666 10V9.33333C8.66666 9.15652 8.7369 8.98695 8.86192 8.86193C8.98695 8.73691 9.15652 8.66667 9.33333 8.66667H9.99999C10.1768 8.66667 10.3464 8.73691 10.4714 8.86193C10.5964 8.98695 10.6667 9.15652 10.6667 9.33333V10ZM10.6667 6V6.66667C10.6667 6.84348 10.5964 7.01305 10.4714 7.13807C10.3464 7.2631 10.1768 7.33333 9.99999 7.33333H9.33333C9.15652 7.33333 8.98695 7.2631 8.86192 7.13807C8.7369 7.01305 8.66666 6.84348 8.66666 6.66667V6C8.66666 5.82319 8.7369 5.65362 8.86192 5.5286C8.98695 5.40357 9.15652 5.33333 9.33333 5.33333H9.99999C10.1768 5.33333 10.3464 5.40357 10.4714 5.5286C10.5964 5.65362 10.6667 5.82319 10.6667 6Z" fill="white" fill-opacity="0.7"/>
</g>
<defs>
<clipPath id="clip0_993_86984">
<rect width="16" height="16" fill="white"/>
</clipPath>
</defs>
</svg>
