<svg width="20" height="20" viewBox="0 0 20 20" fill="none" xmlns="http://www.w3.org/2000/svg">
<path fill-rule="evenodd" clip-rule="evenodd" d="M17 10.5C17 6.35775 13.6423 3 9.5 3C5.35775 3 2 6.35775 2 10.5C2 14.6423 5.35775 18 9.5 18C13.6423 18 17 14.6423 17 10.5ZM9.5 6.75C9.69891 6.75 9.88968 6.82902 10.0303 6.96967C10.171 7.11032 10.25 7.30109 10.25 7.5V11.25C10.25 11.4489 10.171 11.6397 10.0303 11.7803C9.88968 11.921 9.69891 12 9.5 12C9.30109 12 9.11032 11.921 8.96967 11.7803C8.82902 11.6397 8.75 11.4489 8.75 11.25V7.5C8.75 7.30109 8.82902 7.11032 8.96967 6.96967C9.11032 6.82902 9.30109 6.75 9.5 6.75ZM8.75 13.5C8.75 13.3011 8.82902 13.1103 8.96967 12.9697C9.11032 12.829 9.30109 12.75 9.5 12.75H9.506C9.70491 12.75 9.89568 12.829 10.0363 12.9697C10.177 13.1103 10.256 13.3011 10.256 13.5C10.256 13.6989 10.177 13.8897 10.0363 14.0303C9.89568 14.171 9.70491 14.25 9.506 14.25H9.5C9.30109 14.25 9.11032 14.171 8.96967 14.0303C8.82902 13.8897 8.75 13.6989 8.75 13.5Z" fill="#D03232"/>
</svg>
