<?xml version="1.0" encoding="UTF-8" standalone="no"?>
<svg
   width="24"
   height="24"
   viewBox="0 0 24 24"
   fill="none"
   version="1.1"
   id="svg1"
   sodipodi:docname="search_icon_filled.svg"
   xmlns:inkscape="http://www.inkscape.org/namespaces/inkscape"
   xmlns:sodipodi="http://sodipodi.sourceforge.net/DTD/sodipodi-0.dtd"
   xmlns="http://www.w3.org/2000/svg"
   xmlns:svg="http://www.w3.org/2000/svg">
  <defs
     id="defs1" />
  <sodipodi:namedview
     id="namedview1"
     pagecolor="#ffffff"
     bordercolor="#000000"
     borderopacity="0.25"
     inkscape:showpageshadow="2"
     inkscape:pageopacity="0.0"
     inkscape:pagecheckerboard="0"
     inkscape:deskcolor="#d1d1d1" />
  <path
     id="path1"
     style="baseline-shift:baseline;display:inline;overflow:visible;vector-effect:none;fill:#ffffff;stroke-linecap:round;stroke-linejoin:round;enable-background:accumulate;stop-color:#000000;stop-opacity:1;opacity:1"
     d="M 11 1.75 C 9.7852805 1.75 8.5831967 1.9902277 7.4609375 2.4550781 C 6.3386805 2.9199392 5.317926 3.6000427 4.4589844 4.4589844 C 2.7245938 6.1933749 1.75 8.5472064 1.75 11 C 1.75 13.452836 2.7246021 15.806645 4.4589844 17.541016 C 6.1933916 19.275527 8.5472339 20.25 11 20.25 C 13.019473 20.25 14.885715 19.451544 16.480469 18.25 L 20.115234 21.884766 A 1.25 1.25 0 0 0 21.884766 21.884766 A 1.25 1.25 0 0 0 21.884766 20.115234 L 18.25 16.480469 C 18.721181 15.856236 19.246243 15.264736 19.546875 14.539062 C 20.011683 13.416818 20.25 12.214713 20.25 11 C 20.25 9.7853043 20.011678 8.5831946 19.546875 7.4609375 C 19.081967 6.338706 18.399977 5.3179228 17.541016 4.4589844 C 16.682091 3.5999671 15.661274 2.9199298 14.539062 2.4550781 C 13.416816 1.9902232 12.214736 1.75 11 1.75 z M 11 4.25 C 11.886464 4.25 12.765031 4.4244468 13.583984 4.7636719 C 14.402973 5.1029202 15.146761 5.5998198 15.773438 6.2265625 C 16.400275 6.853384 16.897036 7.5989601 17.236328 8.4179688 C 17.575039 9.2364414 17.75 10.11418 17.75 11 C 17.75 11.886487 17.57552 12.765029 17.236328 13.583984 C 16.897027 14.402999 16.400199 15.146758 15.773438 15.773438 C 14.507224 17.039735 12.790792 17.75 11 17.75 C 9.2092661 17.75 7.4927753 17.039726 6.2265625 15.773438 C 4.9603247 14.507207 4.25 12.790764 4.25 11 C 4.25 9.2092936 4.9603331 7.4927919 6.2265625 6.2265625 C 6.8533808 5.5997442 7.5970326 5.1029108 8.4160156 4.7636719 C 9.2349965 4.4244423 10.113559 4.25 11 4.25 z " />
</svg>
