<svg width="28" height="28" viewBox="0 0 28 28" fill="none" xmlns="http://www.w3.org/2000/svg">
<path fill-rule="evenodd" clip-rule="evenodd" d="M5.51562 5.51469C7.76375 3.26506 10.8181 2 14 2C17.1819 2 20.2362 3.26506 22.4844 5.51469C24.7344 7.76431 26 10.8187 26 14C26 17.1813 24.7344 20.2357 22.4844 22.4853C20.2362 24.7349 17.1819 26 14 26C10.8181 26 7.76375 24.7349 5.51562 22.4853C3.26562 20.2357 2 17.1813 2 14C2.00062 10.8173 3.26518 7.76521 5.51562 5.51469ZM14.4294 10.859C13.2631 11.3444 10.9306 12.3493 7.43187 13.8733C6.86375 14.0992 6.56562 14.3202 6.53937 14.5363C6.49321 14.9011 6.95018 15.0451 7.57112 15.2406C7.65629 15.2674 7.74454 15.2952 7.835 15.3247C8.44812 15.5238 9.27313 15.7569 9.70062 15.7661C10.0906 15.7745 10.5238 15.6142 11.0019 15.2853C14.2719 13.079 15.9575 11.9638 16.0644 11.9398C16.1394 11.9229 16.2425 11.9015 16.3119 11.9639C16.3831 12.0262 16.3756 12.1443 16.3681 12.176C16.3239 12.3687 14.5356 14.0314 13.605 14.8966C13.3124 15.1686 13.1047 15.3618 13.0625 15.4057C12.9683 15.5035 12.8723 15.5961 12.78 15.685C12.211 16.2336 11.7841 16.6451 12.8038 17.3169C13.2982 17.6425 13.6928 17.9113 14.0872 18.18C14.511 18.4686 14.9345 18.7571 15.4813 19.1157C15.6219 19.2079 15.7561 19.3036 15.8869 19.3968C16.3839 19.7511 16.8303 20.0693 17.3825 20.0186C17.7031 19.9891 18.035 19.6876 18.2019 18.7884C18.5994 16.6631 19.3812 12.0584 19.5613 10.1609C19.5781 9.99481 19.5575 9.782 19.5425 9.68863C19.5256 9.59516 19.4919 9.46203 19.3719 9.36359C19.2275 9.24688 19.0062 9.22231 18.9069 9.22391C18.455 9.23206 17.7631 9.47281 14.4294 10.859Z" fill="url(#paint0_linear_700_95329)"/>
<defs>
<linearGradient id="paint0_linear_700_95329" x1="1202" y1="2" x2="1202" y2="2402" gradientUnits="userSpaceOnUse">
<stop stop-color="#2AABEE"/>
<stop offset="1" stop-color="#229ED9"/>
</linearGradient>
</defs>
</svg>
