<svg width="24" height="24" viewBox="0 0 24 24" fill="none" xmlns="http://www.w3.org/2000/svg">
<path d="M7.00051 1.02137C7.17651 1 7.37137 1 7.59766 1H15.9023C16.1286 1 16.3235 1 16.4995 1.02137C17.1242 1.0991 17.7052 1.38303 18.1504 1.8282C18.5955 2.27337 18.8795 2.85434 18.9572 3.47909L18.961 3.51429H19.9742C20.2407 3.51177 20.8253 3.50674 21.3081 3.82983C21.9329 4.24594 22.1214 4.96126 22.1214 5.71429C22.1214 9.14126 20.2948 11.4293 17.9628 12.7002C16.6617 15.0687 14.258 16.7143 11.75 16.7143C9.8404 16.7143 8.02886 15.6809 6.7252 14.2515C6.29202 13.779 5.91179 13.2605 5.59126 12.7053C3.26051 11.4406 1.37857 9.15509 1.37857 5.71429C1.37857 4.96 1.56714 4.24594 2.19068 3.82983C2.67468 3.50674 3.25926 3.51177 3.52577 3.51429H4.53903L4.5428 3.47909C4.62053 2.85434 4.90446 2.27337 5.34963 1.8282C5.7948 1.38303 6.37576 1.0991 7.00051 1.02137ZM20.2131 5.40629C20.116 5.40043 20.0187 5.39833 19.9214 5.4H18.9748L18.9346 9.536C19.7366 8.57051 20.2357 7.31086 20.2357 5.71429C20.2357 5.56594 20.2244 5.46789 20.2131 5.40629ZM3.26428 5.71429C3.26428 7.26937 3.75206 8.50514 4.534 9.46309C4.45103 8.52526 4.47366 7.57234 4.49628 6.62446C4.50802 6.21379 4.51514 5.80564 4.51766 5.4H3.57857C3.44154 5.4 3.3548 5.4 3.28817 5.40629C3.2705 5.50797 3.2625 5.6111 3.26428 5.71429ZM12.0391 5.15486C12.015 5.09816 11.9747 5.04982 11.9233 5.01584C11.8719 4.98186 11.8116 4.96375 11.75 4.96375C11.6884 4.96375 11.6281 4.98186 11.5767 5.01584C11.5253 5.04982 11.485 5.09816 11.4609 5.15486L10.826 6.67851C10.8038 6.73169 10.7675 6.77775 10.7209 6.81168C10.6744 6.8456 10.6194 6.86607 10.562 6.87086L8.9164 7.00286C8.8545 7.00776 8.79544 7.03089 8.74667 7.06932C8.6979 7.10776 8.66161 7.15978 8.64238 7.21882C8.62315 7.27786 8.62184 7.34128 8.63861 7.40106C8.65538 7.46085 8.68949 7.51432 8.73663 7.55474L9.99 8.62834C10.0338 8.66604 10.0664 8.71509 10.0841 8.77009C10.1019 8.82509 10.1041 8.88392 10.0906 8.94011L9.7084 10.5442C9.69366 10.6048 9.69725 10.6683 9.71871 10.7268C9.74017 10.7853 9.77853 10.8361 9.82891 10.8727C9.8793 10.9094 9.93944 10.9302 10.0017 10.9326C10.064 10.935 10.1255 10.9188 10.1786 10.8862L11.5866 10.0263C11.6358 9.99631 11.6924 9.98045 11.75 9.98045C11.8076 9.98045 11.8642 9.99631 11.9134 10.0263L13.3214 10.8862C13.3745 10.9188 13.436 10.935 13.4983 10.9326C13.5606 10.9302 13.6207 10.9094 13.6711 10.8727C13.7215 10.8361 13.7598 10.7853 13.7813 10.7268C13.8027 10.6683 13.8063 10.6048 13.7916 10.5442L13.4082 8.94011C13.3946 8.88392 13.3969 8.82509 13.4146 8.77009C13.4324 8.71509 13.4649 8.66604 13.5087 8.62834L14.7634 7.55474C14.8109 7.51442 14.8454 7.46085 14.8625 7.40086C14.8795 7.34088 14.8783 7.27717 14.859 7.21787C14.8398 7.15856 14.8033 7.10633 14.7542 7.06782C14.7052 7.02931 14.6458 7.00626 14.5836 7.0016L12.9393 6.87086C12.8816 6.86629 12.8264 6.84592 12.7796 6.81199C12.7328 6.77805 12.6962 6.73187 12.674 6.67851L12.0391 5.15486ZM11.75 17.3429C12.0001 17.3429 12.2399 17.4422 12.4167 17.619C12.5935 17.7958 12.6929 18.0357 12.6929 18.2857V21.1143H16.7786C17.0286 21.1143 17.2685 21.2136 17.4453 21.3904C17.6221 21.5673 17.7214 21.8071 17.7214 22.0571C17.7214 22.3072 17.6221 22.547 17.4453 22.7238C17.2685 22.9007 17.0286 23 16.7786 23H6.72143C6.47137 23 6.23155 22.9007 6.05473 22.7238C5.87791 22.547 5.77857 22.3072 5.77857 22.0571C5.77857 21.8071 5.87791 21.5673 6.05473 21.3904C6.23155 21.2136 6.47137 21.1143 6.72143 21.1143H10.8071V18.2857C10.8071 18.0357 10.9065 17.7958 11.0833 17.619C11.2601 17.4422 11.4999 17.3429 11.75 17.3429Z" fill="white"/>
</svg>
