<svg width="28" height="28" viewBox="0 0 28 28" fill="none" xmlns="http://www.w3.org/2000/svg">
<path d="M20.1752 2.67518C19.8333 3.01701 19.8333 3.56651 19.8333 4.66668V19.8333C19.8333 20.9335 19.8333 21.483 20.1752 21.8248C20.517 22.1667 21.0665 22.1667 22.1667 22.1667C23.2668 22.1667 23.8163 22.1667 24.1582 21.8248C24.5 21.483 24.5 20.9335 24.5 19.8333V4.66668C24.5 3.56651 24.5 3.01701 24.1582 2.67518C23.8163 2.33334 23.2668 2.33334 22.1667 2.33334C21.0665 2.33334 20.517 2.33334 20.1752 2.67518ZM11.6667 8.16668C11.6667 7.06651 11.6667 6.51701 12.0085 6.17518C12.3503 5.83334 12.8998 5.83334 14 5.83334C15.1002 5.83334 15.6497 5.83334 15.9915 6.17518C16.3333 6.51701 16.3333 7.06651 16.3333 8.16668V19.8333C16.3333 20.9335 16.3333 21.483 15.9915 21.8248C15.6497 22.1667 15.1002 22.1667 14 22.1667C12.8998 22.1667 12.3503 22.1667 12.0085 21.8248C11.6667 21.483 11.6667 20.9335 11.6667 19.8333V8.16668ZM3.84183 10.8418C3.5 11.1837 3.5 11.7332 3.5 12.8333V19.8333C3.5 20.9335 3.5 21.483 3.84183 21.8248C4.18367 22.1667 4.73317 22.1667 5.83333 22.1667C6.9335 22.1667 7.483 22.1667 7.82483 21.8248C8.16667 21.483 8.16667 20.9335 8.16667 19.8333V12.8333C8.16667 11.7332 8.16667 11.1837 7.82483 10.8418C7.483 10.5 6.9335 10.5 5.83333 10.5C4.73317 10.5 4.18367 10.5 3.84183 10.8418ZM3.5 24.7917C3.26794 24.7917 3.04538 24.8839 2.88128 25.048C2.71719 25.2121 2.625 25.4346 2.625 25.6667C2.625 25.8987 2.71719 26.1213 2.88128 26.2854C3.04538 26.4495 3.26794 26.5417 3.5 26.5417H24.5C24.7321 26.5417 24.9546 26.4495 25.1187 26.2854C25.2828 26.1213 25.375 25.8987 25.375 25.6667C25.375 25.4346 25.2828 25.2121 25.1187 25.048C24.9546 24.8839 24.7321 24.7917 24.5 24.7917H3.5Z" fill="white"/>
</svg>
