<svg width="24" height="24" viewBox="0 0 24 24" fill="none" xmlns="http://www.w3.org/2000/svg">
<path d="M3.3966 5.76581C3 6.21699 3 6.992 3 8.5402V17.0853C3 18.1823 3 18.7308 3.28654 19.1438C3.57216 19.5568 4.07246 19.7305 5.07306 20.0771L6.25013 20.4855C6.88778 20.7066 7.37807 20.8767 7.79014 20.9858C8.05939 21.0577 8.3059 20.8467 8.3059 20.5683V6.78733C8.30276 6.67686 8.26312 6.57054 8.19318 6.48497C8.12324 6.3994 8.02694 6.3394 7.91931 6.31432C7.56546 6.22427 7.13975 6.07691 6.55667 5.87497C5.14401 5.38468 4.43722 5.13999 3.90054 5.38832C3.70845 5.47826 3.53691 5.60675 3.3966 5.76581ZM12.6603 4.25036L11.2631 5.21912C10.7583 5.56933 10.3871 5.82676 10.0715 6.0096C9.99743 6.0515 9.93551 6.11193 9.89182 6.18496C9.84813 6.25799 9.82416 6.34113 9.82226 6.42621V20.1135C9.82226 20.4501 10.1716 20.6611 10.4554 20.4792C10.7601 20.2845 11.1094 20.0425 11.5324 19.7496L12.9296 18.7809C13.4344 18.4307 13.8056 18.1732 14.1212 17.9904C14.1953 17.9485 14.2572 17.8881 14.3009 17.815C14.3446 17.742 14.3685 17.6589 14.3704 17.5738V3.8856C14.3704 3.54812 14.0211 3.338 13.7373 3.51902C13.4326 3.71459 13.0833 3.95655 12.6603 4.25036ZM19.1187 3.92198L17.9426 3.51447C17.3049 3.29343 16.8146 3.12332 16.4026 3.01417C16.1333 2.94231 15.8868 3.15334 15.8868 3.43169V17.2127C15.8899 17.3231 15.9296 17.4295 15.9995 17.515C16.0695 17.6006 16.1658 17.6606 16.2734 17.6857C16.6272 17.7757 17.053 17.9222 17.636 18.125C19.0487 18.6153 19.7555 18.86 20.2922 18.6117C20.4843 18.5217 20.6558 18.3932 20.7961 18.2342C21.1927 17.783 21.1927 17.008 21.1927 15.4598V6.91468C21.1927 5.81766 21.1927 5.26824 20.9062 4.85618C20.6205 4.4432 20.1202 4.26946 19.1196 3.92289" fill="white"/>
</svg>
