<svg width="24" height="24" viewBox="0 0 24 24" fill="none" xmlns="http://www.w3.org/2000/svg">
<path d="M19.109 8.22912L19.3103 7.77094C19.6641 6.96042 20.3122 6.31055 21.1266 5.94958L21.7476 5.67517C21.8229 5.64088 21.8867 5.58593 21.9315 5.51685C21.9762 5.44777 22 5.36744 22 5.28539C22 5.20335 21.9762 5.12302 21.9315 5.05394C21.8867 4.98485 21.8229 4.92991 21.7476 4.89562L21.161 4.63739C20.3261 4.26614 19.6669 3.59224 19.3193 2.75451L19.1123 2.25991C19.0819 2.1833 19.0288 2.11752 18.9601 2.07116C18.8914 2.0248 18.8101 2 18.7269 2C18.6437 2 18.5625 2.0248 18.4937 2.07116C18.425 2.11752 18.372 2.1833 18.3416 2.25991L18.1346 2.7537C17.7873 3.59159 17.1284 4.26578 16.2937 4.63739L15.7062 4.89643C15.6311 4.93082 15.5675 4.98575 15.523 5.05475C15.4784 5.12374 15.4547 5.20392 15.4547 5.2858C15.4547 5.36768 15.4784 5.44786 15.523 5.51685C15.5675 5.58584 15.6311 5.64078 15.7062 5.67517L16.328 5.94877C17.1423 6.3101 17.7901 6.96026 18.1436 7.77094L18.3448 8.22912C18.4921 8.56425 18.9609 8.56425 19.109 8.22912ZM14.1345 6.32276C14.3587 6.67354 14.6653 6.93285 15.0542 7.10068L15.5164 7.30063C15.9828 7.50192 16.3163 7.82518 16.517 8.2704L16.7936 8.88562C17.3884 10.2108 19.1589 10.4188 20.1252 9.51216L20.1996 9.61011C20.3133 9.76017 20.3708 9.94464 20.3623 10.132C20.3538 10.3194 20.2798 10.498 20.153 10.6374L12.7895 18.7323C12.7128 18.8166 12.619 18.8839 12.5143 18.9301C12.4096 18.9762 12.2962 19 12.1816 19C12.0669 19 11.9536 18.9762 11.8489 18.9301C11.7442 18.8839 11.6504 18.8166 11.5737 18.7323L4.21017 10.6374C4.08333 10.498 4.00933 10.3194 4.00082 10.132C3.99232 9.94464 4.04983 9.76017 4.16354 9.61011L6.61804 6.37214C6.69425 6.2716 6.79307 6.19 6.90668 6.1338C7.02028 6.0776 7.14556 6.04834 7.27257 6.04834H13.9865C14.0285 6.14224 14.0775 6.23372 14.1337 6.32276" fill="white"/>
</svg>
