<svg width="20" height="20" viewBox="0 0 20 20" fill="none" xmlns="http://www.w3.org/2000/svg">
<path d="M3.72445 17.5001H16.2745C17.5578 17.5001 18.3578 16.1084 17.7161 15.0001L11.4411 4.1584C10.7994 3.05007 9.19945 3.05007 8.55778 4.1584L2.28278 15.0001C1.64112 16.1084 2.44112 17.5001 3.72445 17.5001ZM9.99945 11.6667C9.54112 11.6667 9.16612 11.2917 9.16612 10.8334V9.16673C9.16612 8.7084 9.54112 8.3334 9.99945 8.3334C10.4578 8.3334 10.8328 8.7084 10.8328 9.16673V10.8334C10.8328 11.2917 10.4578 11.6667 9.99945 11.6667ZM10.8328 15.0001H9.16612V13.3334H10.8328V15.0001Z" fill="#FFAA00"/>
</svg>
