<svg width="24" height="24" viewBox="0 0 24 24" fill="none" xmlns="http://www.w3.org/2000/svg">
<path d="M5.29297 15.3685C5.48062 15.5561 5.73509 15.6615 6.00043 15.6615C6.26576 15.6615 6.52023 15.5561 6.70788 15.3685L11.661 10.4153L16.6142 15.3685C16.8029 15.5508 17.0557 15.6516 17.3181 15.6493C17.5804 15.6471 17.8314 15.5418 18.0169 15.3563C18.2024 15.1708 18.3077 14.9198 18.31 14.6574C18.3122 14.3951 18.2114 14.1423 18.0291 13.9536L12.3685 8.29297C12.1808 8.10538 11.9264 8 11.661 8C11.3957 8 11.1412 8.10538 10.9536 8.29297L5.29297 13.9536C5.10538 14.1412 5 14.3957 5 14.661C5 14.9264 5.10538 15.1808 5.29297 15.3685Z" fill="white"/>
</svg>
