<svg width="24" height="23" viewBox="0 0 24 23" fill="none" xmlns="http://www.w3.org/2000/svg">
<path d="M21 19.7337C21 19.9989 20.8946 20.2533 20.7071 20.4408C20.5196 20.6283 20.2652 20.7337 20 20.7337H4C3.73478 20.7337 3.48043 20.6283 3.29289 20.4408C3.10536 20.2533 3 19.9989 3 19.7337V9.22369C2.99989 9.07131 3.03462 8.92091 3.10152 8.78399C3.16841 8.64708 3.26572 8.52726 3.386 8.43369L11.386 2.21069C11.5615 2.07414 11.7776 2 12 2C12.2224 2 12.4385 2.07414 12.614 2.21069L20.614 8.43369C20.7343 8.52726 20.8316 8.64708 20.8985 8.78399C20.9654 8.92091 21.0001 9.07131 21 9.22369V19.7337Z" fill="#FFAA00"/>
</svg>
