<svg xmlns="http://www.w3.org/2000/svg" xmlns:xlink="http://www.w3.org/1999/xlink" width="0" height="0" style="display:none;"><symbol viewBox="0 0 24 24" id="icons-AutoBank">
<path d="M15.6429 5V6.57895H9.35714V5H15.6429ZM15.6429 8.15789V9.73684H9.35714V8.15789H15.6429ZM15.6429 11.3158V12.8947H9.35714V11.3158H15.6429ZM7 14.4737H18L12.5 20L7 14.4737Z" fill="white"></path>
</symbol><symbol viewBox="0 0 24 24" id="icons-BankTransfer">
<path d="M2 15V12H5V10L9 13.5L5 17V15H2ZM22 8.7V10H10V8.7L16 5L22 8.7ZM10 17H22V19H10V17ZM15 11H17V16H15V11ZM11 11H13V16H11V11ZM19 11H21V16H19V11Z" fill="white"></path>
</symbol></svg>